<svg width="64" height="73" viewBox="0 0 64 73" fill="none" xmlns="http://www.w3.org/2000/svg">
<path d="M55.28 38.592C55.5608 38.1512 55.7502 37.6585 55.837 37.1432C55.9238 36.6278 55.9062 36.1003 55.7854 35.5918C55.6645 35.0834 55.4428 34.6044 55.1334 34.1832C54.8239 33.7621 54.4331 33.4073 53.984 33.14L14.296 9.012C13.6506 8.62133 12.9104 8.41519 12.156 8.416C9.916 8.416 8.104 10.188 8.104 12.376V60.62C8.104 61.36 8.316 62.084 8.716 62.712C9.9 64.568 12.396 65.136 14.296 63.98L53.984 39.856C54.508 39.536 54.956 39.1 55.284 38.588L55.28 38.592ZM58.264 46.58L18.58 70.704C12.88 74.172 5.38 72.464 1.836 66.9C0.637795 65.0245 0.000763392 62.8456 0 60.62L0 12.38C0 5.816 5.44 0.5 12.16 0.5C14.428 0.5 16.652 1.12 18.58 2.292L58.264 26.42C63.964 29.884 65.712 37.204 62.164 42.772C61.18 44.316 59.844 45.62 58.264 46.58Z" fill="white"/>
</svg>
